<svg xmlns="http://www.w3.org/2000/svg" width="78" height="36" viewBox="0 0 78 36">
    <defs>
        <style>
            .cls-2{fill:#2cd5c4}
        </style>
    </defs>
    <g id="ic_logo" transform="translate(-333.92 -285.521)">
        <path id="사각형_6" fill="none" d="M0 0H78V36H0z" transform="translate(333.92 285.521)"/>
        <g id="그룹_45867" transform="translate(335.181 288.601)">
            <path id="패스_3865" d="M150.069 340.348c0 1.45.381 2.247 1.9 2.241h14.511a1.624 1.624 0 0 1 .408.041.563.563 0 0 1 .271.276 1.445 1.445 0 0 1 .044.392v2.531s0 .385-.009.43a.543.543 0 0 1-.494.5c-.058.01-1.193.013-1.193.013l-13.6-.013s-.407-.01-.823-.025c-.353-.013-.712-.03-.831-.048a5.292 5.292 0 0 1-4.658-4.613c-.054-.493-.084-1.649-.084-1.649v-8.583s.032-1.211.116-1.725a5.33 5.33 0 0 1 4.244-4.331c.189-.037.988-.1 1.16-.106l.649-.028h14.339s.466.016.679.037a.488.488 0 0 1 .474.36 2.971 2.971 0 0 1 .032.424c.008.167 0 1.972 0 2.659a1.677 1.677 0 0 1-.044.433.494.494 0 0 1-.328.293 3.033 3.033 0 0 1-.344.022h-14.9a1.529 1.529 0 0 0-1.529 1.486v3.017h16.217a2.259 2.259 0 0 1 .4.031.445.445 0 0 1 .321.35 1.707 1.707 0 0 1 .016.28c0 .243.014 1.442 0 1.9a2.277 2.277 0 0 1-.036.426.46.46 0 0 1-.375.309 2.736 2.736 0 0 1-.276.012h-16.259l.002 2.658z" class="cls-2" transform="translate(-145.511 -323.211)"/>
            <path id="패스_3866" d="M378.516 320.451a.517.517 0 0 0 .352-.346 2.281 2.281 0 0 0 .022-.31c.006-.185.006-3.134 0-3.311v-.128a.515.515 0 0 0-.355-.49 1.459 1.459 0 0 0-.269-.025c-.225-.009-3.214 0-3.375 0a1.283 1.283 0 0 0-.258.02.5.5 0 0 0-.349.343 2.434 2.434 0 0 0-.023.311c-.005.2-.005 3.114 0 3.255a2.675 2.675 0 0 0 .025.344.517.517 0 0 0 .326.329.943.943 0 0 0 .254.026c.221 0 3.078.012 3.312 0a3.328 3.328 0 0 0 .338-.018z" class="cls-2" transform="translate(-317.392 -315.837)"/>
            <path id="패스_3867" d="M247.309 393.788h-7.372a1.506 1.506 0 0 0-.494.059.593.593 0 0 0-.294.467c-.017.214-.021.357-.021.357v2.373s.01.218.026.429.162.463.362.489c.154.02.356.026.356.026l7.437.006z" class="cls-2" transform="translate(-215.855 -374.409)"/>
            <path id="패스_3868" d="M378.016 342.7a1.322 1.322 0 0 1 .511.06.643.643 0 0 1 .239.267 1.357 1.357 0 0 1 .036.445c.038 4.2.054 9.117 0 15.317a1.948 1.948 0 0 1-.03.438.489.489 0 0 1-.266.293 1.523 1.523 0 0 1-.458.05h-3.118a1.523 1.523 0 0 1-.458-.05.488.488 0 0 1-.266-.293 1.929 1.929 0 0 1-.03-.438c-.054-6.2-.038-11.118 0-15.317a1.346 1.346 0 0 1 .036-.445.64.64 0 0 1 .239-.267 1.322 1.322 0 0 1 .511-.06z" class="cls-2" transform="translate(-317.305 -336.017)"/>
            <path id="패스_3869" d="M409.274 333.485v-7.558h5.387a5.18 5.18 0 0 0 .567-.023.49.49 0 0 0 .321-.291 2.288 2.288 0 0 0 .041-.528c.006-.426 0-1.7 0-1.7s-.006-.376-.017-.418a.49.49 0 0 0-.335-.357 4.006 4.006 0 0 0-.406-.026h-5.557v-5.639s0-.383-.013-.548v-.048a.245.245 0 0 0 0-.028.523.523 0 0 0-.3-.335l-.023-.006a.522.522 0 0 0-.053-.005c-.2-.019-.684-.029-.684-.029h-2.657s-.322.008-.509.022a.562.562 0 0 0-.143.025.485.485 0 0 0-.26.284.51.51 0 0 0-.017.119c-.009.125-.012.322-.019.506-.049 1.2-.044 15.632-.017 16.629.021.793.042 1.254.075 1.564a5.059 5.059 0 0 0 4.088 4.283 14 14 0 0 0 1.688.1h4.134s.812-.007.86-.023a.514.514 0 0 0 .321-.291 3.372 3.372 0 0 0 .052-.706v-1.84c0-.2-.016-.5-.033-.636a.45.45 0 0 0-.313-.333c-.056-.021-.458-.024-.812-.033-.442-.011-2.981 0-3.343 0a5.13 5.13 0 0 1-.812-.049 1.492 1.492 0 0 1-1.189-1.254 8.164 8.164 0 0 1-.022-.828z" class="cls-2" transform="translate(-340.16 -315.916)"/>
            <path id="패스_3870" d="M285.072 346.531a3.316 3.316 0 0 0-.823.061 1.516 1.516 0 0 0-1.032.992 4.8 4.8 0 0 0-.079.955v18.531a.72.72 0 0 1-.72.72h-3.207q-.754 0-.753-.72v-18.831s.038-.986.07-1.221a5.114 5.114 0 0 1 4.286-4.357c.257-.04.868-.037 1.361-.06.525-.024 8.154-.03 9.021-.009.611.015 1.734.047 2.068.115a5.271 5.271 0 0 1 4.007 4.028 12.593 12.593 0 0 1 .1 1.664c.009 1.462.009 4.677 0 5.261-.009.407-.019 1.21-.052 1.448a5 5 0 0 1-4.291 4.3c-.236.033-.74.074-1.42.112-1.2.065-8.905 0-8.905 0v-4.21h7.9a7.488 7.488 0 0 0 1.013-.058 1.387 1.387 0 0 0 1.034-.963 9.974 9.974 0 0 0 .091-1.183c.026-.836.016-4.007 0-4.479a4.828 4.828 0 0 0-.058-.933 1.4 1.4 0 0 0-.825-1.007 4.617 4.617 0 0 0-1.445-.155c-.324 0-1.891-.007-3.494-.007-1.814-.003-3.575 0-3.847.006z" class="cls-2" transform="translate(-245.406 -335.931)"/>
        </g>
    </g>
</svg>
